/* XPM */ 
static const unsigned char * autohidecursor_right_xpm[] = {
"32 32 3 1 25 16",
" 	c None",
"!	c black",
"#	c white",
"                                ",
"                                ",
"                                ",
"                                ",
"                                ",
"                                ",
"                                ",
"                         ####   ",
"                         #!!#   ",
"                         #!!#   ",
"                         #!!#   ",
"                         #!!#   ",
"                    ##   #!!#   ",
"                    #!#  #!!#   ",
"                    #!!# #!!#   ",
"         ############!!!##!!#   ",
"         #!!!!!!!!!!!!!!!#!!#   ",
"         ############!!!##!!#   ",
"                    #!!# #!!#   ",
"                    #!#  #!!#   ",
"                    ##   #!!#   ",
"                         #!!#   ",
"                         #!!#   ",
"                         #!!#   ",
"                         #!!#   ",
"                         ####   ",
"                                ",
"                                ",
"                                ",
"                                ",
"                                ",
"                                "};