/* XPM */ 
static const unsigned char * autohidecursor_down_xpm[] = {
"32 32 3 1 15 25",
" 	c None",
"!	c black",
"#	c white",
"                                ",
"                                ",
"                                ",
"                                ",
"                                ",
"                                ",
"                                ",
"                                ",
"                                ",
"              ###               ",
"              #!#               ",
"              #!#               ",
"              #!#               ",
"              #!#               ",
"              #!#               ",
"              #!#               ",
"              #!#               ",
"              #!#               ",
"              #!#               ",
"              #!#               ",
"           ####!####            ",
"           #!!!!!!!#            ",
"            #!!!!!#             ",
"             #!!!#              ",
"              #!#               ",
"      ###################       ",
"      #!!!!!!!!!!!!!!!!!#       ",
"      #!!!!!!!!!!!!!!!!!#       ",
"      ###################       ",
"                                ",
"                                ",
"                                "};