/* XPM */ 
static const unsigned char * autohidecursor_left_xpm[] = {
"32 32 3 1 6 15",
" 	c None",
"!	c black",
"#	c white",
"                                ",
"                                ",
"                                ",
"                                ",
"                                ",
"                                ",
"   ####                         ",
"   #!!#                         ",
"   #!!#                         ",
"   #!!#                         ",
"   #!!#                         ",
"   #!!#   ##                    ",
"   #!!#  #!#                    ",
"   #!!# #!!#                    ",
"   #!!##!!!############         ",
"   #!!#!!!!!!!!!!!!!!!#         ",
"   #!!##!!!############         ",
"   #!!# #!!#                    ",
"   #!!#  #!#                    ",
"   #!!#   ##                    ",
"   #!!#                         ",
"   #!!#                         ",
"   #!!#                         ",
"   #!!#                         ",
"   ####                         ",
"                                ",
"                                ",
"                                ",
"                                ",
"                                ",
"                                ",
"                                "};